<svg id="I_C_O_N_S" data-name="I C O N S" xmlns="http://www.w3.org/2000/svg" width="18" height="18" viewBox="0 0 18 18">
  <defs>
    <style>
      .fill {
        fill: #B9B9B9;
      }
    </style>
  </defs>
  <path class="fill" d="M10.3675,1H2.5a.5.5,0,0,0-.5.5v15a.5.5,0,0,0,.5.5h12a.5.5,0,0,0,.5-.5V5.6325a1,1,0,0,0-.293-.707L11.0745,1.293A1,1,0,0,0,10.3675,1ZM14,5.6325V16H3V2h7.3675Z"/>
  <rect class="fill" x="4" y="8" width="2" height="1"/>
  <rect class="fill" x="4" y="10" width="2" height="1"/>
  <rect class="fill" x="7" y="8" width="6" height="1"/>
  <rect class="fill" x="7" y="10" width="6" height="1"/>
  <rect class="fill" x="7" y="12" width="6" height="1"/>
  <rect class="fill" x="4" y="12" width="2" height="1"/>
</svg>
