<svg id="I_C_O_N_S" data-name="I C O N S" xmlns="http://www.w3.org/2000/svg" width="18" height="18" viewBox="0 0 18 18">
  <defs>
    <style>
      .fill {
        fill: #6e6e6e;
      }
    </style>
  </defs>
  <path class="fill" d="M10.3675,1H2.5a.5.5,0,0,0-.5.5v15a.5.5,0,0,0,.5.5h12a.5.5,0,0,0,.5-.5V5.6325a1,1,0,0,0-.293-.707L11.0745,1.293A1,1,0,0,0,10.3675,1ZM14,5.6325V16H3V2h7.3675Z"/>
  <path class="fill" d="M6.47793,11.327a.105.105,0,0,1-.02562.15221A.12034.12034,0,0,1,6.38392,11.5H5.14956a.1183.1183,0,0,1-.09267-.0424L3.5,9.49937l1.55689-1.957A.11785.11785,0,0,1,5.14956,7.5H6.38392a.11246.11246,0,0,1,.11575.10884.1048.1048,0,0,1-.02174.06374L4.90125,9.50021Z"/>
  <path class="fill" d="M7.86809,12.75l-.61092-.00048A.2533.2533,0,0,1,7,12.5003a.242.242,0,0,1,.00944-.06683l1.87424-6.5012A.25671.25671,0,0,1,9.13391,5.75h.60892A.25328.25328,0,0,1,10,5.99922a.242.242,0,0,1-.00944.06683L8.11532,12.56774A.25612.25612,0,0,1,7.86809,12.75Z"/>
  <path class="fill" d="M11.94265,11.4576A.11968.11968,0,0,1,11.85,11.5H10.61608A.1125.1125,0,0,1,10.5,11.39148a.10477.10477,0,0,1,.02206-.06445l1.57669-1.82724L10.52206,7.67255a.105.105,0,0,1,.0264-.15206A.12041.12041,0,0,1,10.61608,7.5h1.23436a.11924.11924,0,0,1,.09266.0424L13.5,9.49894Z"/>
</svg>
