<svg id="I_C_O_N_S" data-name="I C O N S" xmlns="http://www.w3.org/2000/svg" width="36" height="36" viewBox="0 0 36 36">
  <defs>
    <style>
      .fill {
        fill: #B9B9B9;
      }
    </style>
  </defs>
  <path class="fill" d="M5,34H29a1,1,0,0,0,1-1V11.265a1.9998,1.9998,0,0,0-.58594-1.414L22.14893,2.586A1.9999,1.9999,0,0,0,20.73486,2H5A1,1,0,0,0,4,3V33A1,1,0,0,0,5,34ZM6,4H20.73486L28,11.265V32H6Z"/>
  <path class="fill" d="M25.86938,20.26984a2.22656,2.22656,0,0,0-.5476-.4173,3.53254,3.53254,0,0,0-.7461-.2995,5.95876,5.95876,0,0,0-.94189-.18054,9.87842,9.87842,0,0,0-1.13525-.06049q-.34059.00466-.68287.02118-.342.01657-.68383.04572-.34168.02911-.68164.07129-.33948.04229-.67579.0982-.21459-.20993-.42163-.42914-.20653-.21927-.404-.44781-.197-.22861-.38306-.46643-.18567-.23795-.35864-.48511-.13514-.18192-.26367-.36853-.12817-.18658-.251-.37781-.12231-.19125-.23926-.38714-.11644-.19593-.22851-.39649.219-.68573.38257-1.30377.16332-.618.272-1.16846.10841-.55041.16235-1.03314a8.17309,8.17309,0,0,0,.05371-.898,4.5638,4.5638,0,0,0-.10693-1.00207,3.01761,3.01761,0,0,0-.34692-.89484,1.85661,1.85661,0,0,0-.6272-.64288,1.80141,1.80141,0,0,0-.94629-.24646,1.48985,1.48985,0,0,0-.38013.05865,1.51866,1.51866,0,0,0-.87622.67523,2.70974,2.70974,0,0,0-.312,1.02228,5.83684,5.83684,0,0,0,.00879,1.35352,9.75417,9.75417,0,0,0,.31885,1.57739,12.77271,12.77271,0,0,0,.61865,1.694c-.09033.26434-.18188.5263-.27612.78851-.09424.26215-.19116.52454-.29126.78967-.10034.26508-.2041.5329-.3125.806-.10816.27308-.221.55134-.33911.83741q-.15419.36383-.31543.72491-.1615.36118-.3313.718-.1703.35686-.35034.70862-.17982.35183-.37134.697c-.38233.1524-.87232.35992-1.39649.61145a16.17137,16.17137,0,0,0-1.60424.87506,7.5672,7.5672,0,0,0-1.37574,1.071A2.4478,2.4478,0,0,0,7.771,25.20813a1.355,1.355,0,0,0-.02442.36346,1.37449,1.37449,0,0,0,.07129.35175,1.40658,1.40658,0,0,0,.15967.32379,1.46815,1.46815,0,0,0,.24121.27948,1.81331,1.81331,0,0,0,.29.212,1.85629,1.85629,0,0,0,.32275.15027,1.92128,1.92128,0,0,0,.346.08722,2.00073,2.00073,0,0,0,.35986.02319,2.82083,2.82083,0,0,0,1.45484-.46008,6.72292,6.72292,0,0,0,1.39526-1.18653A14.389,14.389,0,0,0,13.66382,23.73c.39892-.5813.76831-1.18689,1.0979-1.76843q.27978-.0933.56177-.18384t.56543-.17688q.28308-.08624.56762-.16754.28419-.08121.56885-.15588.31275-.084.61816-.15876t.604-.14129q.29845-.06646.59009-.125.2915-.0586.57592-.10981a9.799,9.799,0,0,0,1.4961,1.08545,7.80082,7.80082,0,0,0,1.34765.62952,6.538,6.538,0,0,0,1.13575.29132,5.44056,5.44056,0,0,0,.85937.07086,3.22929,3.22929,0,0,0,.81006-.09271,1.87889,1.87889,0,0,0,.55811-.23846,1.40325,1.40325,0,0,0,.353-.32477,1.38424,1.38424,0,0,0,.19434-.35163,1.5189,1.5189,0,0,0,.08447-.40191,1.561,1.561,0,0,0-.15283-.7945A1.53039,1.53039,0,0,0,25.86938,20.26984Zm-14.426,3.7763a10.8364,10.8364,0,0,1-.875,1.03437,4.52712,4.52712,0,0,1-.7749.65649,1.23207,1.23207,0,0,1-.6294.22974.54354.54354,0,0,1-.08545-.007.55245.55245,0,0,1-.08545-.021.50375.50375,0,0,1-.08081-.035.40231.40231,0,0,1-.07153-.04895.48028.48028,0,0,1-.08838-.09467.461.461,0,0,1-.083-.236.47228.47228,0,0,1,.00977-.12964,1.38571,1.38571,0,0,1,.34106-.59515,4.77215,4.77215,0,0,1,.76441-.67676,10.86581,10.86581,0,0,1,1.13525-.71875c.43433-.24207.92163-.48462,1.45362-.721C12.05933,23.18671,11.74683,23.6438,11.44336,24.04614Zm3.95581-12.39477a4.34911,4.34911,0,0,1,.0376-.88727,1.7179,1.7179,0,0,1,.17065-.55719.547.547,0,0,1,.07862-.111.51464.51464,0,0,1,.1018-.08649.481.481,0,0,1,.12036-.05621.4645.4645,0,0,1,.13477-.02.44552.44552,0,0,1,.28857.0968.61268.61268,0,0,1,.17456.24841,1.38464,1.38464,0,0,1,.08594.337,2.68829,2.68829,0,0,1,.02295.36267,5.905,5.905,0,0,1-.04126.65014c-.02734.24195-.06763.50751-.12061.7912-.05273.28369-.11816.58588-.19506.90082-.07691.315-.16553.64313-.26514.979a10.6577,10.6577,0,0,1-.43091-1.45984A7.40836,7.40836,0,0,1,15.39917,11.65137Zm2.84619,8.1817c-.11474.02508-.27368.06122-.45019.10248-.17652.0412-.37037.08746-.55542.13269-.18482.04529-.36036.0896-.50049.127l-.30762.08417q-.15417.04221-.3081.08533-.15381.043-.30762.08764-.15419.0446-.30811.09119.08423-.16791.16333-.33356.07947-.16552.15406-.3288.0747-.16323.14453-.32421.06994-.161.13525-.31952l.16748-.41767q.08349-.20791.16528-.41424.08168-.20626.1604-.41181t.15357-.4107q.06555.10263.13086.20312.06555.10044.13208.19965.06629.09906.13428.19726.06774.09815.13769.19611.1355.18659.27344.36847.1377.18192.28.35919.14246.17725.28979.34986.14722.17257.30127.34045A1.60833,1.60833,0,0,0,18.24536,19.83307Zm6.16089,1.62756a.726.726,0,0,1-.20215.1883.98923.98923,0,0,1-.28345.12072,1.4,1.4,0,0,1-.35253.04254c-.03736,0-.07374-.00079-.10962-.0025-.03614-.00171-.07129-.00445-.10645-.00836s-.06958-.00891-.104-.01538c-.03443-.00641-.06861-.01416-.10279-.0235a6.16546,6.16546,0,0,1-.69311-.21026,6.58031,6.58031,0,0,1-.6814-.2967,7.35226,7.35226,0,0,1-.67212-.38519q-.334-.21505-.665-.47607.24756-.03737.49683-.06531.24939-.028.50146-.04669.252-.01859.50611-.028t.51074-.00934q.16773-.00466.33594-.00018.16772.00448.33569.01727.16809.01282.33594.03363.16809.0207.33569.04877a1.32415,1.32415,0,0,1,.29126.08008.84283.84283,0,0,1,.25611.15936.58565.58565,0,0,1,.16284.25733.7666.7666,0,0,1,.01147.374A.64723.64723,0,0,1,24.40625,21.46063Z"/>
</svg>
