<svg id="I_C_O_N_S" data-name="I C O N S" xmlns="http://www.w3.org/2000/svg" width="18" height="18" viewBox="0 0 18 18">
  <defs>
    <style>
      .fill {
        fill: #6e6e6e;
      }
    </style>
  </defs>
  <path class="fill" d="M14.46973,7.74243C12.53662,7.74243,11,8.28241,11,9.0556s1.56689,1.4,3.5,1.4,3.5-.62683,3.5-1.4S16.40283,7.74243,14.46973,7.74243Z"/>
  <path class="fill" d="M14.5,12.1333c-1.93311,0-3.5-.76-3.5-1.5332v2C11,13.37329,12.56689,14,14.5,14s3.5-.62671,3.5-1.3999v-2C18,11.37329,16.43311,12.1333,14.5,12.1333Z"/>
  <path class="fill" d="M14.5,15.41028c-1.93311,0-3.5-.62671-3.5-1.3999v2.57934c0,.7732,1.56689,1.3999,3.5,1.3999s3.5-.6267,3.5-1.3999V14.01038C18,14.78357,16.43311,15.41028,14.5,15.41028Z"/>
  <path class="fill" d="M1.5,17h8.57422A1.5682,1.5682,0,0,1,10,16.58972V16H7V14h3V13H7V11h3V10H7V8h3.41455a3.53261,3.53261,0,0,1,1.84888-1H2V2H16V6.8595a7.09054,7.09054,0,0,1,1,.21563V1.5a.5.5,0,0,0-.5-.5H1.5a.5.5,0,0,0-.5.5v15A.5.5,0,0,0,1.5,17ZM2,8H6v2H2Zm0,3H6v2H2Zm0,3H6v2H2Z"/>
</svg>
