<svg id="I_C_O_N_S" data-name="I C O N S" xmlns="http://www.w3.org/2000/svg" width="18" height="18" viewBox="0 0 18 18">
  <defs>
    <style>
      .fill {
        fill: #6e6e6e;
      }
    </style>
  </defs>
  <rect class="fill" x="1" y="1" width="4" height="3" rx="0.5"/>
  <rect class="fill" x="10" y="7" width="4" height="3" rx="0.5"/>
  <rect class="fill" x="10" y="13" width="4" height="3" rx="0.5"/>
  <rect class="fill" x="6" y="2" width="11" height="1" rx="0.25"/>
  <rect class="fill" x="15" y="8" width="2" height="1" rx="0.25"/>
  <rect class="fill" x="15" y="14" width="2" height="1" rx="0.25"/>
  <path class="fill" d="M8.75,9A.24994.24994,0,0,0,9,8.75v-.5A.2499.2499,0,0,0,8.75,8H3V5.25A.24986.24986,0,0,0,2.75,5h-.5A.24986.24986,0,0,0,2,5.25v9.5a.25006.25006,0,0,0,.25.25h6.5A.24994.24994,0,0,0,9,14.75v-.5A.2499.2499,0,0,0,8.75,14H3V9Z"/>
</svg>
