<svg id="I_C_O_N_S" data-name="I C O N S" xmlns="http://www.w3.org/2000/svg" width="18" height="18" viewBox="0 0 18 18">
  <defs>
    <style>
      .fill {
        fill: #6e6e6e;
      }
    </style>
  </defs>
  <path class="fill" d="M14.53,1.156a.75013.75013,0,0,0-1.06079-.00037L13.469,1.156,6.58838,8.0365A4.44939,4.44939,0,0,0,4.5,7.5,4.5,4.5,0,1,0,9,12a4.45215,4.45215,0,0,0-.52441-2.06653l3.36279-3.363,1.87012,1.87a.375.375,0,0,0,.53027.00018l.00024-.00018,1.67212-1.672L13.77588,4.633l.61572-.61554L16.52637,6.153,17.761,4.918a.37553.37553,0,0,0,0-.53046ZM3.75,14.25a1.5,1.5,0,1,1,1.5-1.5A1.5,1.5,0,0,1,3.75,14.25Z"/>
</svg>
