<svg id="I_C_O_N_S" data-name="I C O N S" xmlns="http://www.w3.org/2000/svg" width="18" height="18" viewBox="0 0 18 18">
  <defs>
    <style>
      .fill {
        fill: #6e6e6e;
      }
    </style>
  </defs>
  <ellipse class="fill" cx="9" cy="3.5" rx="8" ry="2.5"/>
  <path class="fill" d="M5.06738,10.6756A5.48643,5.48643,0,0,1,7.26025,7.06042C4.78809,6.86182,1.71094,6.2627,1,5.135V8.5C1,9.43347,2.64062,10.24622,5.06738,10.6756Z"/>
  <path class="fill" d="M17,5.135c-.6394.80884-2.123,1.31714-3.74487,1.62012A5.51191,5.51191,0,0,1,15.729,9.84875C16.52979,9.45935,17,8.99719,17,8.5Z"/>
  <path class="fill" d="M17,10.135a3.12137,3.12137,0,0,1-1.04883.79138,5.51556,5.51556,0,0,1,.02881.56372,5.39738,5.39738,0,0,1-.43726,2.11438l1.32911,1.329A.889.889,0,0,0,17,14.5Z"/>
  <path class="fill" d="M9,17c.42114,0,.83154-.01324,1.23511-.03284A5.48836,5.48836,0,0,1,5.01465,11.782C3.19336,11.468,1.50342,10.93439,1,10.13751V14.5C1,15.88049,4.58154,17,9,17Z"/>
  <path class="fill" d="M10.49023,7a4.49015,4.49015,0,1,0,2.3086,8.32281l2.27246,2.27259a1.022,1.022,0,0,0,1.52417,0,1.06658,1.06658,0,0,0,.29492-.595,1.08165,1.08165,0,0,0-.29492-.92914l-2.27271-2.27258A4.46649,4.46649,0,0,0,10.49023,7Zm0,7.2738a2.78388,2.78388,0,1,1,2.7837-2.78369A2.78392,2.78392,0,0,1,10.49023,14.2738Z"/>
</svg>
