<svg id="I_C_O_N_S" data-name="I C O N S" xmlns="http://www.w3.org/2000/svg" width="18" height="18" viewBox="0 0 18 18">
  <defs>
    <style>
      .fill {
        fill: #6e6e6e;
      }
    </style>
  </defs>
  <path class="fill" d="M16.59814,4a.39217.39217,0,0,0-.28027.1178L14.50928,5.92627l-.178-.178a8.08605,8.08605,0,0,0-3.6416-2.166,7.71513,7.71513,0,0,0-9.522,5.83288A.49787.49787,0,0,0,1.66309,10h.94677a.60785.60785,0,0,0,.5813-.469A5.72365,5.72365,0,0,1,12.749,6.99414l.34619.34619L11.11768,9.31787A.39272.39272,0,0,0,11,9.59814.40175.40175,0,0,0,11.3772,10H16.752A.25.25,0,0,0,17,9.75208V4.3772A.40148.40148,0,0,0,16.59814,4Z"/>
  <path class="fill" d="M11,15a2,2,0,1,0-2.00024,2A2.00015,2.00015,0,0,0,11,15Z"/>
</svg>
