<svg id="I_C_O_N_S" data-name="I C O N S" xmlns="http://www.w3.org/2000/svg" width="36" height="36" viewBox="0 0 36 36">
  <defs>
    <style>
      .fill {
        fill: #6e6e6e;
      }
    </style>
  </defs>
  <path class="fill" d="M33.19629,8a.78383.78383,0,0,0-.56055.2356l-3.61719,3.61706-.35595-.3562a16.17057,16.17057,0,0,0-7.28321-4.33179A15.43018,15.43018,0,0,0,2.33545,18.83032.99571.99571,0,0,0,3.32617,20H5.21973a1.21558,1.21558,0,0,0,1.16259-.93787,11.44729,11.44729,0,0,1,19.11573-5.07385l.69238.69251-3.95508,3.95483A.78568.78568,0,0,0,22,19.19617.80353.80353,0,0,0,22.75439,20H33.50391A.49976.49976,0,0,0,34,19.50415V8.75427A.80293.80293,0,0,0,33.19629,8Z"/>
  <path class="fill" d="M22,30a4,4,0,1,0-4.00024,4A4.00009,4.00009,0,0,0,22,30Z"/>
</svg>
