<svg id="I_C_O_N_S" data-name="I C O N S" xmlns="http://www.w3.org/2000/svg" width="128" height="128" viewBox="0 0 128 128">
  <defs>
    <style>
      .cls-1 {
        fill: #051e4d;
      }

      .cls-2 {
        fill: #71a1fb;
      }
    </style>
  </defs>
  <g>
    <g id="Surfaces">
      <g id="Developers">
        <g id="Outline_no_shadow_copy_3" data-name="Outline no shadow copy 3">
          <rect class="cls-1" x="4" y="6.14286" width="120" height="115.71428" rx="21.24392"/>
        </g>
      </g>
    </g>
    <g id="Outlined_Mnemonics_Logos" data-name="Outlined Mnemonics Logos">
      <g id="Cf">
        <path class="cls-2" d="M69.78918,77.66543v8.16643a1.04669,1.04669,0,0,1-.63512,1.11015,21.32756,21.32756,0,0,1-4.79632,1.07038,51.06171,51.06171,0,0,1-6.22454.35679,35.05443,35.05443,0,0,1-8.76082-1.07038,25.91536,25.91536,0,0,1-7.57219-3.25091A23.1056,23.1056,0,0,1,35.9335,78.696,23.70727,23.70727,0,0,1,32.128,71.3226a31.05615,31.05615,0,0,1-1.34766-9.51418A27.71328,27.71328,0,0,1,34.2688,47.735a24.04858,24.04858,0,0,1,9.91071-9.43517,32.53151,32.53151,0,0,1,15.30135-3.36966,50.07629,50.07629,0,0,1,6.145.31757,18.44135,18.44135,0,0,1,4.16332.95108,1.02169,1.02169,0,0,1,.3955.95163V45.872c0,.47557-.18626.63408-.55454.47557a17.14766,17.14766,0,0,0-4.6781-1.38742,36.37614,36.37614,0,0,0-5.78717-.43633,18.31656,18.31656,0,0,0-9.11865,2.14072,14.84034,14.84034,0,0,0-5.86671,5.907,18.29954,18.29954,0,0,0-2.06124,8.91933,19.2832,19.2832,0,0,0,.99086,6.50181,15.43527,15.43527,0,0,0,2.73507,4.83609,13.55794,13.55794,0,0,0,3.9645,3.2509,19.54321,19.54321,0,0,0,4.7168,1.784,21.023,21.023,0,0,0,4.87688.59482,53.491,53.491,0,0,0,5.35192-.238,19.40739,19.40739,0,0,0,4.39975-.95162q.31545-.23785.47609-.11876A.63326.63326,0,0,1,69.78918,77.66543Z"/>
        <path class="cls-2" d="M78.5887,57.36844H73.83111c-.37042-.05231-.55561-.238-.55561-.555v-8.087a.49114.49114,0,0,1,.55561-.555H78.5887V46.90281a27.85906,27.85906,0,0,1,.39551-4.95536A15.71856,15.71856,0,0,1,80.2534,37.9432a13.75933,13.75933,0,0,1,4.519-5.31215,13.25369,13.25369,0,0,1,7.77-2.06123,20.2847,20.2847,0,0,1,2.2998.11876,7.13167,7.13167,0,0,1,1.82269.4363.81547.81547,0,0,1,.55561.7926v7.84946q0,.55557-.63513.39656a8.49789,8.49789,0,0,0-1.18862-.07952H94.20814a5.37015,5.37015,0,0,0-2.49857.555,3.3939,3.3939,0,0,0-1.58518,1.86349,9.84084,9.84084,0,0,0-.51582,3.5282v2.14071h6.66085c.316,0,.51478.05285.5943.15857a.7896.7896,0,0,1,.1193.47555v8.008q0,.5556-.71357.555H89.60859V86.86255a1.06438,1.06438,0,0,1-.11824.47554c-.07952.15858-.27727.23805-.59535.23805H79.22277c-.42375,0-.63407-.23805-.63407-.71357Z"/>
      </g>
    </g>
  </g>
</svg>
