<svg id="I_C_O_N_S" data-name="I C O N S" xmlns="http://www.w3.org/2000/svg" width="128" height="128" viewBox="0 0 128 128">
  <defs>
    <style>
      .fill {
        fill: #B9B9B9;
      }
    </style>
  </defs>
  <path class="fill" d="M102.7561,6.14282H25.2439A21.24393,21.24393,0,0,0,4,27.38678v73.22644a21.24392,21.24392,0,0,0,21.2439,21.2439h77.5122A21.24392,21.24392,0,0,0,124,100.61322V27.38678A21.24393,21.24393,0,0,0,102.7561,6.14282ZM70.18457,37.15039V45.872c0,.47558-.186.63409-.55444.47558a17.14709,17.14709,0,0,0-4.678-1.38745,36.37657,36.37657,0,0,0-5.78736-.43628,18.317,18.317,0,0,0-9.11865,2.14069,14.84219,14.84219,0,0,0-5.8667,5.907,18.30066,18.30066,0,0,0-2.06128,8.91931,19.284,19.284,0,0,0,.991,6.50183,15.43147,15.43147,0,0,0,2.73511,4.83606,13.55665,13.55665,0,0,0,3.96435,3.25092,19.54755,19.54755,0,0,0,4.7168,1.784,21.02319,21.02319,0,0,0,4.877.59478,53.47744,53.47744,0,0,0,5.352-.238,19.40269,19.40269,0,0,0,4.39966-.9516q.31532-.23785.47608-.11878a.63275.63275,0,0,1,.15893.51545v8.16644a1.04653,1.04653,0,0,1-.635,1.11017,21.331,21.331,0,0,1-4.79638,1.07037,51.05449,51.05449,0,0,1-6.22437.35675,35.05449,35.05449,0,0,1-8.761-1.07037,25.914,25.914,0,0,1-7.572-3.25092,23.09849,23.09849,0,0,1-5.8667-5.35187,23.70686,23.70686,0,0,1-3.80566-7.37341,31.06822,31.06822,0,0,1-1.34766-9.51416A27.71418,27.71418,0,0,1,34.2688,47.73492a24.04813,24.04813,0,0,1,9.91064-9.43518A32.53259,32.53259,0,0,1,59.481,34.93011a50.076,50.076,0,0,1,6.145.31757,18.439,18.439,0,0,1,4.16308.951A1.02151,1.02151,0,0,1,70.18457,37.15039Zm27.03589,2.61652q0,.55563-.635.3966a8.49245,8.49245,0,0,0-1.18872-.07953H94.208a5.37074,5.37074,0,0,0-2.49854.555,3.39319,3.39319,0,0,0-1.585,1.86346,9.83581,9.83581,0,0,0-.51587,3.5282v2.14075h6.66089c.31592,0,.51465.05279.59424.15857a.79.79,0,0,1,.11914.47552v8.008q0,.55554-.71338.555H89.60864V86.86255a1.06438,1.06438,0,0,1-.11841.47552c-.07934.15857-.2771.238-.59521.238H79.22266c-.42359,0-.634-.238-.634-.71356V57.36841H73.83105c-.37036-.05231-.55566-.238-.55566-.555v-8.087a.491.491,0,0,1,.55566-.555h4.75757V46.90277a27.89664,27.89664,0,0,1,.39551-4.95532,15.71473,15.71473,0,0,1,1.26929-4.00427,13.76,13.76,0,0,1,4.519-5.31214,13.25312,13.25312,0,0,1,7.77-2.06122,20.28848,20.28848,0,0,1,2.29981.11872,7.1357,7.1357,0,0,1,1.82275.43634.81544.81544,0,0,1,.55542.7926Z"/>
</svg>
