<svg id="I_C_O_N_S" data-name="I C O N S" xmlns="http://www.w3.org/2000/svg" width="18" height="18" viewBox="0 0 18 18">
  <defs>
    <style>
      .fill {
        fill: #B9B9B9;
      }
    </style>
  </defs>
  <path class="fill" d="M15.75,3H12V2a1,1,0,0,0-1-1H6A1,1,0,0,0,5,2V3H1.25A.24994.24994,0,0,0,1,3.25v.5A.24994.24994,0,0,0,1.25,4h1L3.45654,16.54785A.5.5,0,0,0,3.9541,17h9.0918a.5.5,0,0,0,.49756-.45215L14.75,4h1A.24994.24994,0,0,0,16,3.75v-.5A.24994.24994,0,0,0,15.75,3ZM5.53271,14.50012a.5.5,0,0,1-.53222-.46631L4.46484,6.03589a.5.5,0,1,1,.99781-.06714l.5354,7.998A.50022.50022,0,0,1,5.53271,14.50012ZM9,14a.5.5,0,0,1-1,0V6A.5.5,0,0,1,9,6ZM11,3H6V2h5Zm.99951,11.03381a.49991.49991,0,1,1-.99756-.067l.5354-7.998a.5.5,0,1,1,.99781.06714Z"/>
</svg>
