<svg id="I_C_O_N_S" data-name="I C O N S" xmlns="http://www.w3.org/2000/svg" width="18" height="18" viewBox="0 0 18 18">
  <defs>
    <style>
      .fill {
        fill: #696969;
      }
    </style>
  </defs>
  <path class="fill" d="M16.78339,4.09835,13.90106,1.216a.60725.60725,0,0,0-.43316-.17651l-.01923.00024a.68551.68551,0,0,0-.4635.20313L2.54187,11.68624a.49872.49872,0,0,0-.12555.21051L1.02765,16.54953c-.05695.18823.22955.42529.39148.42529a.13763.13763,0,0,0,.03064-.00317c.13818-.0318,3.93347-1.17212,4.65582-1.38929a.49045.49045,0,0,0,.20715-.12451L16.75641,5.01413a.68719.68719,0,0,0,.20215-.44165A.61091.61091,0,0,0,16.78339,4.09835ZM5.6983,14.65792c-1.08032.32471-2.431.73267-3.36432,1.01123l1.0044-3.36523Z"/>
</svg>
