<svg id="I_C_O_N_S" data-name="I C O N S" xmlns="http://www.w3.org/2000/svg" width="36" height="36" viewBox="0 0 36 36">
  <defs>
    <style>
      .fill {
        fill: #A9A9A9;
      }
    </style>
  </defs>
  <path class="fill" d="M8.68968,14H33.2251L28.55859,28H4ZM13.9292,4H4A2.0001,2.0001,0,0,0,2,6V29a1,1,0,0,0,1,1H29.2793a1.00033,1.00033,0,0,0,.94873-.68384l5.333-16A.99971.99971,0,0,0,34.61279,12H32V9a1.00036,1.00036,0,0,0-1-1h-.00049l-12.33105.00732L15.36328,4.606A1.9999,1.9999,0,0,0,13.9292,4Z"/>
</svg>
