<svg id="I_C_O_N_S" data-name="I C O N S" xmlns="http://www.w3.org/2000/svg" width="18" height="18" viewBox="0 0 18 18">
  <defs>
    <style>
      .fill {
        fill: #B9B9B9;
      }
    </style>
  </defs>
  <path class="fill" d="M16.5,1H5.5a.5.5,0,0,0-.5.5v3a.5.5,0,0,0,.5.5h1A.50018.50018,0,0,0,7,4.5V3h8V15H7V13.5a.50014.50014,0,0,0-.5-.5h-1a.5.5,0,0,0-.5.5v3a.5.5,0,0,0,.5.5h11a.5.5,0,0,0,.5-.5V1.5A.5.5,0,0,0,16.5,1Z"/>
  <path class="fill" d="M8,12.59918A.4.4,0,0,0,8.40235,13a.39282.39282,0,0,0,.26342-.10181l3.76245-3.7229a.25.25,0,0,0,0-.35065L8.66577,5.1018A.39252.39252,0,0,0,8.40235,5,.4.4,0,0,0,8,5.40075V8H1.5a.5.5,0,0,0-.5.5v1a.5.5,0,0,0,.5.5H8Z"/>
</svg>
