<svg id="I_C_O_N_S" data-name="I C O N S" xmlns="http://www.w3.org/2000/svg" width="36" height="36" viewBox="0 0 36 36">
  <defs>
    <style>
      .fill {
        fill: #B9B9B9;
      }
    </style>
  </defs>
  <path class="fill" d="M25.548,27.421a2.165,2.165,0,0,0,.421.611,2.19,2.19,0,0,0,3.094,0l3.609-3.609a2.188,2.188,0,0,0-3.094-3.094l-.819.819A5.84986,5.84986,0,0,0,26.11,21.7l1.921-1.921a4.375,4.375,0,0,1,6.187,6.187l-3.609,3.609a4.351,4.351,0,0,1-6.656-.562ZM23.396,24.42l-3.614,3.61a4.375,4.375,0,0,0,6.187,6.187L27.89,32.3a5.851,5.851,0,0,1-2.649-.445l-.819.819a2.188,2.188,0,0,1-3.094-3.094l3.609-3.609a2.19,2.19,0,0,1,3.094,0,2.15667,2.15667,0,0,1,.421.611l1.6-1.6a4.35105,4.35105,0,0,0-6.656-.562Z"/>
  <path class="fill" d="M17.36279,28H4L8.6897,14H33.2251l-.88135,2.644a6.26456,6.26456,0,0,1,1.86816.71924L35.561,13.31616A.99971.99971,0,0,0,34.61279,12H32V9a1.00036,1.00036,0,0,0-1-1h-.00049l-12.33105.00732L15.36328,4.606A1.9999,1.9999,0,0,0,13.9292,4H4A2.0001,2.0001,0,0,0,2,6V29a1,1,0,0,0,1,1H16.6311A6.3555,6.3555,0,0,1,17.36279,28Z"/>
</svg>
