<svg id="I_C_O_N_S" data-name="I C O N S" xmlns="http://www.w3.org/2000/svg" width="18" height="18" viewBox="0 0 18 18">
  <defs>
    <style>
      .fill {
        fill: #6e6e6e;
      }
    </style>
  </defs>
  <path class="fill" d="M16.33691,10h-.94677a.60774.60774,0,0,0-.5813.46887,5.72362,5.72362,0,0,1-9.55786,2.537l-.34619-.34625,1.97753-1.97748A.39272.39272,0,0,0,7,10.40186.40171.40171,0,0,0,6.6228,10H1.24805A.2498.2498,0,0,0,1,10.24792v5.37494A.40147.40147,0,0,0,1.40186,16a.39217.39217,0,0,0,.28027-.1178l1.80859-1.80853.178.1781a8.0852,8.0852,0,0,0,3.6416,2.16589,7.71509,7.71509,0,0,0,9.522-5.83282A.49784.49784,0,0,0,16.33691,10Z"/>
  <path class="fill" d="M16.59814,2a.39192.39192,0,0,0-.28027.1178L14.50928,3.92633l-.178-.1781a8.0852,8.0852,0,0,0-3.6416-2.16589,7.71509,7.71509,0,0,0-9.522,5.83282A.49787.49787,0,0,0,1.66309,8h.94677a.60779.60779,0,0,0,.5813-.46893A5.72363,5.72363,0,0,1,12.749,4.99414l.34619.34625L11.11768,7.31781A.39282.39282,0,0,0,11,7.59808.40176.40176,0,0,0,11.3772,8H16.752A.24988.24988,0,0,0,17,7.75208V2.37714A.40147.40147,0,0,0,16.59814,2Z"/>
</svg>
