<svg id="I_C_O_N_S" data-name="I C O N S" xmlns="http://www.w3.org/2000/svg" width="36" height="36" viewBox="0 0 36 36">
  <defs>
    <style>
      .fill {
        fill: #6e6e6e;
      }
    </style>
  </defs>
  <path class="fill" d="M30.31659,24h-3.66c1.26-4.32,5.66-10.74,5.66-14.06,0-3.88-2.04-5.94-4-5.94h-20c-3.66.82-3.4,6.58-.52,7.4a11.19531,11.19531,0,0,0,2.38.58c-1.1,4.22-4.94,8.98-6.06,13.48-.44,2.32.38,5.62,2.2,6.54h22C32.67657,32,33.05658,24,30.31659,24Zm-22.18,6.42c-2-.16-2.38-2.08-2.02-4.96.28-2.12,1.7-4.06,3-6.68,1.66-3.26,3.2-6.34,3.2-8.78a12.58807,12.58807,0,0,0-.64-4h16.64c.8,0,2,1.26,2,3.94,0,1.44-1.46,4.38-2.74,6.96a37.95441,37.95441,0,0,0-2.98,7.1h-16.28C11.11658,26.08,10.15662,30.08,8.1366,30.42Zm21.48-1.42c-.5,1-1.08,1-1.3,1h-17.22c1.22-1.22.92-3.62.84-4H29.91663A4.35648,4.35648,0,0,1,29.61658,29Z"/>
</svg>
