<svg id="I_C_O_N_S" data-name="I C O N S" xmlns="http://www.w3.org/2000/svg" width="36" height="36" viewBox="0 0 36 36">
  <defs>
    <style>
      .fill {
        fill: #6e6e6e;
      }
    </style>
  </defs>
  <path class="fill" d="M15.34,6.024C9.02,8.069,4,12.944,4,20.007V31.5a.5.5,0,0,0,.5.5h11a.5.5,0,0,0,.5-.5V20.507a.5.5,0,0,0-.5-.5H10.151c0-4.02,1.9-7.093,5.529-8.49a.488.488,0,0,0,.32-.451V6.51a.511.511,0,0,0-.66-.486Z"/>
  <path class="fill" d="M31.34,6.024C25.02,8.069,20,12.944,20,20.007V31.5a.5.5,0,0,0,.5.5h11a.5.5,0,0,0,.5-.5V20.507a.5.5,0,0,0-.5-.5H26.151c0-4.02,1.905-7.093,5.529-8.49a.488.488,0,0,0,.32-.451V6.51a.511.511,0,0,0-.66-.486Z"/>
</svg>
