<svg id="I_C_O_N_S" data-name="I C O N S" xmlns="http://www.w3.org/2000/svg" width="36" height="36" viewBox="0 0 36 36">
  <defs>
    <style>
      .fill {
        fill: #6e6e6e;
      }
    </style>
  </defs>
  <rect class="fill" x="24" y="20" width="6" height="2"/>
  <rect class="fill" x="24" y="14" width="6" height="2"/>
  <rect class="fill" x="24" y="8" width="6" height="2"/>
  <rect class="fill" x="6" y="20" width="6" height="2"/>
  <rect class="fill" x="6" y="14" width="6" height="2"/>
  <rect class="fill" x="6" y="8" width="6" height="2"/>
  <rect class="fill" x="14" y="20" width="8" height="2"/>
  <rect class="fill" x="14" y="14" width="8" height="2"/>
  <rect class="fill" x="14" y="8" width="8" height="2"/>
  <path class="fill" d="M35,2H1A1,1,0,0,0,0,3V27a1,1,0,0,0,1,1H14v5a1,1,0,0,1-1,1H11a.97939.97939,0,0,0-1,1v1H26V35a1.00391,1.00391,0,0,0-1-1H23a1,1,0,0,1-1-1V28H35a1,1,0,0,0,1-1V3A1,1,0,0,0,35,2ZM34,26H2V4H34Z"/>
</svg>
