<svg id="I_C_O_N_S" data-name="I C O N S" xmlns="http://www.w3.org/2000/svg" width="36" height="36" viewBox="0 0 36 36">
  <defs>
    <style>
      .fill {
        fill: #6e6e6e;
      }
    </style>
  </defs>
  <path class="fill" d="M17.24,2V5L14.38,3.96l-.52,1.48,2.9.942L14.94,8.88l1.358.96,1.742-2.6,1.74,2.6,1.28-.96L19.3,6.382l2.88-.942-.54-1.48-2.88,1V2Zm-9.68.02L2,18.7H4.778l5.56-16.68Zm23.658,15.3L25.658,34H28.44L34,17.32ZM17.16,25.642V28.64L14.298,27.6l-.52,1.48,2.902.94-1.822,2.5,1.362.96,1.74-2.6,1.718,2.6,1.3-.96L19.2,30.02l2.88-.94-.52-1.48-2.88,1V25.642Z"/>
</svg>
