<svg id="I_C_O_N_S" data-name="I C O N S" xmlns="http://www.w3.org/2000/svg" width="36" height="36" viewBox="0 0 36 36">
  <defs>
    <style>
      .fill {
        fill: #6e6e6e;
      }
    </style>
  </defs>
  <path class="fill" d="M15,8a1,1,0,0,1,1,1v5a1,1,0,0,1-1,1H13a1,1,0,0,1-1-1V12H10V24h1a1,1,0,0,1,1,1v2a1,1,0,0,1-1,1H5a1,1,0,0,1-1-1V25a1,1,0,0,1,1-1H6V12H4v2a1,1,0,0,1-1,1H1a1,1,0,0,1-1-1V9A1,1,0,0,1,1,8Z"/>
  <path class="fill" d="M33,8a1,1,0,0,1,1,1v5a1,1,0,0,1-1,1H31a1,1,0,0,1-1-1V12H28V24h1a1,1,0,0,1,1,1v2a1,1,0,0,1-1,1H23a1,1,0,0,1-1-1V25a1,1,0,0,1,1-1h1V12H22v2a1,1,0,0,1-1,1H19a1,1,0,0,1-1-1V9a1,1,0,0,1,1-1Z"/>
</svg>
