<svg id="I_C_O_N_S" data-name="I C O N S" xmlns="http://www.w3.org/2000/svg" width="18" height="18" viewBox="0 0 18 18">
  <defs>
    <style>
      .green500 {
        fill: #268e6c;
      }
    </style>
  </defs>
  <path class="green500" d="M9,.99981a8,8,0,1,0,8,8A8,8,0,0,0,9,.99981ZM14.333,5.54,8.00879,13.67041a.60416.60416,0,0,1-.4375.23047c-.01172.001-.02442.001-.03614.001a.59966.59966,0,0,1-.4248-.17578L3.21778,9.82862a.6.6,0,0,1-.00011-.84853L3.21778,8.98l.66308-.66259a.60061.60061,0,0,1,.84766,0l2.67285,2.67334,5.25585-6.7544a.60146.60146,0,0,1,.84278-.105l.72754.5664A.60239.60239,0,0,1,14.333,5.54Z"/>
</svg>
