<svg id="I_C_O_N_S" data-name="I C O N S" xmlns="http://www.w3.org/2000/svg" width="18" height="18" viewBox="0 0 18 18">
  <defs>
    <style>
      .fill {
        fill: #6e6e6e;
      }
    </style>
  </defs>
  <path class="fill" d="M7.67,3.012C4.51,4.0345,2,6.472,2,10.0035V15.75a.25.25,0,0,0,.25.25h5.5A.25.25,0,0,0,8,15.75V10.2535a.25.25,0,0,0-.25-.25H5.0755A4.2438,4.2438,0,0,1,7.84,5.7585.244.244,0,0,0,8,5.533V3.255a.2555.2555,0,0,0-.33-.243Z"/>
  <path class="fill" d="M15.67,3.012C12.51,4.0345,10,6.472,10,10.0035V15.75a.25.25,0,0,0,.25.25h5.5a.25.25,0,0,0,.25-.25V10.2535a.25.25,0,0,0-.25-.25H13.0755A4.247,4.247,0,0,1,15.84,5.7585.244.244,0,0,0,16,5.533V3.255a.2555.2555,0,0,0-.33-.243Z"/>
</svg>
