<svg id="I_C_O_N_S" data-name="I C O N S" xmlns="http://www.w3.org/2000/svg" width="36" height="36" viewBox="0 0 36 36">
  <defs>
    <style>
      .fill {
        fill: #6e6e6e;
      }
    </style>
  </defs>
  <path class="fill" d="M33.7601,17.38712a2.33839,2.33839,0,0,0-1.72149-.72944,3.7,3.7,0,0,0-2.41695,1.08678,24.88031,24.88031,0,0,0-1.7126,1.868c-1.57717,1.82259-2.104,2.36568-2.4416,2.50837a.54747.54747,0,0,1-.47165-.02192,2.17832,2.17832,0,0,1-1.11054-1.48956,9.10823,9.10823,0,0,1-.43369-2.50059c0-.54947.002-12.51336,0-12.63413a2.078,2.078,0,0,0-4.1559-.00518l-.00052,10.38715a.5754.5754,0,0,1-1.14944,0L18.14624,3.7844a2.078,2.078,0,0,0-4.1559,0L13.99,16.03732a.57534.57534,0,0,1-1.14933,0l.00021-10.14654a2.078,2.078,0,0,0-4.156,0V17.92921a.57533.57533,0,0,1-1.14933,0v-6.152A1.67974,1.67974,0,0,0,5.8168,10.13963,1.69049,1.69049,0,0,0,4.087,11.78783l-.01119,3.19575c-.015,4.21835-.017,4.782.01119,8.0385.01851,2.14525.177,5.55966,1.6555,8.22565C7.29455,34.04618,10.93232,36,15.32656,36c3.18393,0,7.11415-2.5853,11.36584-7.47648L32.96351,19.984C33.77495,19.17562,34.34522,18.04719,33.7601,17.38712Z"/>
</svg>
