<svg id="I_C_O_N_S" data-name="I C O N S" xmlns="http://www.w3.org/2000/svg" width="36" height="36" viewBox="0 0 36 36">
  <defs>
    <style>
      .fill {
        fill: #6e6e6e;
      }
    </style>
  </defs>
  <path class="fill" d="M7.178,31.8c-.238,0-.324-.12-.254-.356L8.6,24H5.088c-.2,0-.306-.118-.306-.358V20.226q0-.254.306-.254H9.424l1.122-5.048H7.28a.224.224,0,0,1-.254-.254V11.254A.224.224,0,0,1,7.28,11h4.182l1.48-6.784a.284.284,0,0,1,.306-.254h2.908c.17,0,.236.102.2.306L14.876,11h4.03l1.48-6.834a.242.242,0,0,1,.254-.2h2.908c.2,0,.288.102.254.306l-1.53,6.732H25.8q.306,0,.306.254v3.416a.224.224,0,0,1-.254.254H21.458l-1.07,5.048h3.11q.306,0,.306.254v3.52c0,.17-.102.254-.306.254H19.572l-1.684,7.498c-.068.2-.17.306-.306.306H14.726c-.272,0-.356-.102-.254-.306l1.632-7.498h-4.03L10.34,31.552c-.07.17-.172.254-.306.254ZM12.89,19.968h4.03l1.122-5.048h-4.08Z"/>
</svg>
