<svg id="I_C_O_N_S" data-name="I C O N S" xmlns="http://www.w3.org/2000/svg" width="36" height="36" viewBox="0 0 36 36">
  <defs>
    <style>
      .fill {
        fill: #6e6e6e;
      }
    </style>
  </defs>
  <path class="fill" d="M15.5,26h-3a.49514.49514,0,0,1-.5-.5v-3a.49514.49514,0,0,1,.5-.5h3a.49514.49514,0,0,1,.5.5v3A.49514.49514,0,0,1,15.5,26Zm-3-6a.49514.49514,0,0,1-.5-.5v-7a.49514.49514,0,0,1,.5-.5h3a.49514.49514,0,0,1,.5.5v7a.49514.49514,0,0,1-.5.5ZM24,18.5a.49514.49514,0,0,1,.5-.5h3a.49514.49514,0,0,1,.5.5v1a.49514.49514,0,0,1-.5.5h-3a.49514.49514,0,0,1-.5-.5Zm6,0a.49514.49514,0,0,1,.5-.5h3a.49514.49514,0,0,1,.5.5v1a.49514.49514,0,0,1-.5.5h-3a.49514.49514,0,0,1-.5-.5Zm-12,0a.49514.49514,0,0,1,.5-.5h3a.49514.49514,0,0,1,.5.5v1a.49514.49514,0,0,1-.5.5h-3a.49514.49514,0,0,1-.5-.5Z"/>
  <path class="fill" d="M7.72667,25.85082,0,18l7.72667-7.85082a.49568.49568,0,0,1,.70891,0l1.4176,1.44037a.51515.51515,0,0,1,0,.72031L4.253,18l5.60016,5.69014a.51515.51515,0,0,1,0,.72031l-1.4176,1.44037A.49568.49568,0,0,1,7.72667,25.85082Z"/>
</svg>
