<svg id="I_C_O_N_S" data-name="I C O N S" xmlns="http://www.w3.org/2000/svg" width="36" height="36" viewBox="0 0 36 36">
  <defs>
    <style>
      .fill {
        fill: #6e6e6e;
      }
    </style>
  </defs>
  <path class="fill" d="M9.87764,25.82025c0,.1705-.02549.31316-.18161.36884a5.983,5.983,0,0,1-2.32267.40015c-2.2685,0-3.5987-1.22481-3.5987-4.0746V15.45108h-1.566C2.05257,15.41976,2,15.36409,2,15.19359V12.403c0-.20182.05257-.25749.23577-.25749H3.80015A33.76511,33.76511,0,0,1,4.06141,8.6972a.29294.29294,0,0,1,.23418-.25749L7.34788,8.0152c.13063-.03132.20869-.03132.20869.1705-.07806.88381-.13063,2.56446-.13063,3.95977H9.82666c.15612,0,.20869.05567.20869.22617v2.87762c0,.14267-.05257.1705-.1832.20182H7.40045v6.09624c0,1.25265.33932,1.8233,1.40825,1.8233a4.86045,4.86045,0,0,0,.88733-.11483c.10355,0,.18161.02784.18161.19834Z"/>
  <path class="fill" d="M14.94355,12.14547c.18161,0,.25967.08351.31224.25749a5.822,5.822,0,0,1,.28675,1.59365,5.29215,5.29215,0,0,1,4.1483-2.13647c.15612,0,.20869.05568.20869.22618v3.50394c0,.14267-.05257.20182-.23418.20182a5.05762,5.05762,0,0,0-3.93961,1.22481l-.02549,9.06085c0,.1705-.05257.22617-.23577.22617H12.33413c-.20869,0-.25967-.087-.25967-.25749V16.22007c0-1.22482-.02708-2.87762-.13063-3.87626,0-.14267.02549-.19834.15612-.19834Z"/>
  <path class="fill" d="M24.8603,12.14547a.27056.27056,0,0,1,.26126.19834c1.48791,4.87142,2.2701,7.836,2.63491,9.31485.83475-3.0168,1.644-5.75176,2.66039-9.31485a.27146.27146,0,0,1,.28675-.19834h3.10486c.1832,0,.20869.11483.1832.25749-1.87821,6.38156-4.77438,14.242-6.70516,19.11338-.051.11482-.129.20181-.3648.20181L23.63524,32c-.15612,0-.20869-.08351-.13063-.254.7567-1.70848,1.53889-3.59093,2.37365-5.7274a.531.531,0,0,0,.02708-.48366c-.73121-1.966-3.18292-8.68854-4.72181-13.16329-.07965-.14266.02549-.22617.15612-.22617Z"/>
</svg>
