<svg id="I_C_O_N_S" data-name="I C O N S" xmlns="http://www.w3.org/2000/svg" width="18" height="18" viewBox="0 0 18 18">
  <defs>
    <style>
      .fill {
        fill: #6e6e6e;
      }
    </style>
  </defs>
  <path class="fill" d="M12.774,13.7105a1.08227,1.08227,0,0,0,.2105.3055,1.095,1.095,0,0,0,1.547,0l1.8045-1.8045a1.094,1.094,0,0,0-1.547-1.547l-.4095.4095a2.92492,2.92492,0,0,0-1.3245-.224l.9605-.9605A2.1875,2.1875,0,0,1,17.109,12.983l-1.8045,1.8045a2.17548,2.17548,0,0,1-3.328-.281ZM11.698,12.21,9.891,14.015a2.1875,2.1875,0,0,0,3.0935,3.0935l.9605-.9585a2.92549,2.92549,0,0,1-1.3245-.2225l-.4095.4095a1.094,1.094,0,0,1-1.547-1.547l1.8045-1.8045a1.095,1.095,0,0,1,1.547,0,1.07834,1.07834,0,0,1,.2105.3055l.8-.8a2.17549,2.17549,0,0,0-3.328-.281Z"/>
  <path class="fill" d="M8.6814,14H2L4.34485,7h12.2677l-.44067,1.322a3.13225,3.13225,0,0,1,.93408.35962l.67456-2.02356A.49985.49985,0,0,0,17.3064,6H16V4.5a.50018.50018,0,0,0-.5-.5h-.00024l-6.16553.00366L7.68164,2.303A.99993.99993,0,0,0,6.9646,2H2A1,1,0,0,0,1,3V14.5a.5.5,0,0,0,.5.5H8.31555A3.17764,3.17764,0,0,1,8.6814,14Z"/>
</svg>
