<svg id="I_C_O_N_S" data-name="I C O N S" xmlns="http://www.w3.org/2000/svg" width="18" height="18" viewBox="0 0 18 18">
  <defs>
    <style>
      .fill {
        fill: #696969;
      }
    </style>
  </defs>
  <path class="fill" d="M6,3H0V1.5A.5.5,0,0,1,.5,1H3.793a.5.5,0,0,1,.3535.1465Z"/>
  <path class="fill" d="M8,13.5a5.458,5.458,0,0,1,.77954-2.80817V9.30933H8.19922c-.04517-.00641-.06763-.02906-.06763-.06769V8.25537a.05981.05981,0,0,1,.06763-.06769h.58032V8.033a3.40914,3.40914,0,0,1,.0481-.60431,1.92221,1.92221,0,0,1,.15478-.48834,1.67784,1.67784,0,0,1,.55127-.64783,1.61644,1.61644,0,0,1,.94751-.2514,2.47593,2.47593,0,0,1,.28052.01452.86955.86955,0,0,1,.22217.05316.09966.09966,0,0,1,.06787.09668v.95728q0,.06776-.07752.04834a1.03648,1.03648,0,0,0-.14489-.00964h-.145a.654.654,0,0,0-.30469.06768.41376.41376,0,0,0-.19336.22724,1.19816,1.19816,0,0,0-.06287.4303v.261h.81238c.03845,0,.06275.00647.07239.01935a.09611.09611,0,0,1,.01453.058v.33118A5.45893,5.45893,0,0,1,13.5,8l.02747.0014L13.55005,8c.00769,0,.01538.00354.02295.00372A5.46,5.46,0,0,1,16,8.60718V4.5a.5.5,0,0,0-.5-.5H0V14.5a.5.5,0,0,0,.5.5H8.21313A5.4743,5.4743,0,0,1,8,13.5ZM7.75464,7.90729c0,.058-.02271.07727-.06763.058a2.09,2.09,0,0,0-.57055-.16919,4.42827,4.42827,0,0,0-.70582-.05322,2.23339,2.23339,0,0,0-1.11206.261,1.81077,1.81077,0,0,0-.71545.72039A2.23132,2.23132,0,0,0,4.33179,9.812a2.35167,2.35167,0,0,0,.12085.793,1.881,1.881,0,0,0,.33349.58978,1.65417,1.65417,0,0,0,.48352.39643,2.3837,2.3837,0,0,0,.5752.21759,2.56686,2.56686,0,0,0,.59485.07251,6.52691,6.52691,0,0,0,.65259-.029,2.36728,2.36728,0,0,0,.53662-.11608c.02563-.01935.04492-.02417.0581-.01447a.0774.0774,0,0,1,.01929.06287v.99591a.12746.12746,0,0,1-.07739.13537,2.60061,2.60061,0,0,1-.585.13056,6.22394,6.22394,0,0,1-.759.04352,4.27521,4.27521,0,0,1-1.06848-.13056A3.15951,3.15951,0,0,1,4.293,12.563a2.81921,2.81921,0,0,1-.71546-.65271A2.89166,2.89166,0,0,1,3.1134,11.011a3.78823,3.78823,0,0,1-.1643-1.16028,3.37917,3.37917,0,0,1,.42541-1.71631A2.93314,2.93314,0,0,1,4.58313,6.98383a3.967,3.967,0,0,1,1.86609-.411,6.09766,6.09766,0,0,1,.74939.03869,2.24413,2.24413,0,0,1,.50769.116.1246.1246,0,0,1,.04834.116Z"/>
  <path class="fill" d="M13.5,9A4.5,4.5,0,1,0,18,13.5,4.49991,4.49991,0,0,0,13.5,9ZM15.95,14.25H14.25v1.7a.25.25,0,0,1-.25.25H13a.25.25,0,0,1-.25-.25v-1.7H11.05005a.25.25,0,0,1-.25-.25V13a.25.25,0,0,1,.25-.25H12.75v-1.7A.25.25,0,0,1,13,10.8h1a.25.25,0,0,1,.25.25v1.7H15.95a.25.25,0,0,1,.25.25v1A.25.25,0,0,1,15.95,14.25Z"/>
</svg>
