<svg xmlns="http://www.w3.org/2000/svg" height="18" id="S_Code_18_N" viewBox="0 0 18 18" width="18">
  <defs>
    <style>
      .fill {
        fill: #6e6e6e;
      }


    </style>
  </defs>
  <path class="fill" d="M8.226,14.473a.5.5,0,0,1-.483.371H7.227a.5.5,0,0,1-.472-.666L9.786,2.693a.5.5,0,0,1,.483-.37h.5a.5.5,0,0,1,.472.665Z" />
  <path class="fill" d="M17.746,9.53l-4.095,4.16a.5.5,0,0,1-.713,0l-.446-.453a.5.5,0,0,1,0-.7L15.971,9,12.492,5.464a.5.5,0,0,1,0-.7l.446-.454a.5.5,0,0,1,.713,0L17.746,8.47A.76.76,0,0,1,17.746,9.53Z" />
  <path class="fill" d="M.254,8.47l4.1-4.161a.5.5,0,0,1,.713,0l.446.454a.5.5,0,0,1,0,.7L2.029,9l3.479,3.535a.5.5,0,0,1,0,.7l-.446.453a.5.5,0,0,1-.713,0L.254,9.53A.76.76,0,0,1,.254,8.47Z" />
  </svg>