<svg id="I_C_O_N_S" data-name="I C O N S" xmlns="http://www.w3.org/2000/svg" width="18" height="18" viewBox="0 0 18 18">
  <defs>
    <style>
      .fill {
        fill: #696969;
      }
    </style>
  </defs>
  <path class="fill" d="M7,4H1V2.5A.5.5,0,0,1,1.5,2H4.793a.5.5,0,0,1,.3535.1465Z"/>
  <path class="fill" d="M16.5,5H1V15.5a.5.5,0,0,0,.5.5h15a.5.5,0,0,0,.5-.5V5.5A.5.5,0,0,0,16.5,5ZM9.75464,8.90729c0,.058-.02271.07727-.06763.058a2.09,2.09,0,0,0-.57055-.16919,4.42827,4.42827,0,0,0-.70582-.05322,2.23339,2.23339,0,0,0-1.11206.261,1.81077,1.81077,0,0,0-.71545.72039A2.23132,2.23132,0,0,0,6.33179,10.812a2.35167,2.35167,0,0,0,.12085.793,1.881,1.881,0,0,0,.33349.58978,1.65417,1.65417,0,0,0,.48352.39643,2.3837,2.3837,0,0,0,.5752.21759,2.56686,2.56686,0,0,0,.59485.07251,6.52691,6.52691,0,0,0,.65259-.029,2.36728,2.36728,0,0,0,.53662-.11608c.02563-.01935.04492-.02417.0581-.01447a.0774.0774,0,0,1,.01929.06287v.99591a.12746.12746,0,0,1-.07739.13537,2.60061,2.60061,0,0,1-.585.13056,6.22394,6.22394,0,0,1-.759.04352,4.27521,4.27521,0,0,1-1.06848-.13056A3.15951,3.15951,0,0,1,6.293,13.563a2.81921,2.81921,0,0,1-.71546-.65271A2.89166,2.89166,0,0,1,5.1134,12.011a3.78823,3.78823,0,0,1-.1643-1.16028,3.37917,3.37917,0,0,1,.42541-1.71631A2.93314,2.93314,0,0,1,6.58313,7.98383a3.967,3.967,0,0,1,1.86609-.411,6.09766,6.09766,0,0,1,.74939.03869,2.24413,2.24413,0,0,1,.50769.116.1246.1246,0,0,1,.04834.116Zm3.29712-.74457q0,.06776-.07752.04834a1.03648,1.03648,0,0,0-.14489-.00964h-.145a.654.654,0,0,0-.30469.06768.41376.41376,0,0,0-.19336.22724,1.19816,1.19816,0,0,0-.06287.4303v.261h.81238c.03845,0,.06275.00647.07239.01935a.09611.09611,0,0,1,.01453.058v.97663c0,.04516-.02906.06769-.08692.06769h-.81238v3.59686a.12992.12992,0,0,1-.01452.058q-.01428.029-.07251.029H10.85681c-.05163,0-.07727-.029-.07727-.087V10.30933h-.58032c-.04517-.00641-.06763-.02906-.06763-.06769V9.25537a.05981.05981,0,0,1,.06763-.06769h.58032V9.033a3.40914,3.40914,0,0,1,.0481-.60431,1.92221,1.92221,0,0,1,.15478-.48834,1.67784,1.67784,0,0,1,.55127-.64783,1.61644,1.61644,0,0,1,.94751-.2514,2.47593,2.47593,0,0,1,.28052.01452.86955.86955,0,0,1,.22217.05316.09966.09966,0,0,1,.06787.09668Z"/>
</svg>
