<svg id="I_C_O_N_S" data-name="I C O N S" xmlns="http://www.w3.org/2000/svg" width="36" height="36" viewBox="0 0 36 36">
  <defs>
    <style>
      .fill {
        fill: #B9B9B9;
      }

      .orange500 {
        fill: #da7b11;
      }
    </style>
  </defs>
  <path class="fill" d="M15.82178,30H4V2H18.73486L26,9.26514V14h.001A3.44025,3.44025,0,0,1,28,14.65747V9.26514a1.99984,1.99984,0,0,0-.58594-1.41407L20.14893.58594A1.99984,1.99984,0,0,0,18.73486,0H3A1,1,0,0,0,2,1V31a1,1,0,0,0,1,1H14.81738Z"/>
  <rect class="fill" x="6" y="14" width="4" height="2"/>
  <rect class="fill" x="6" y="18" width="4" height="2"/>
  <rect class="fill" x="12" y="14" width="12" height="2"/>
  <rect class="fill" x="6" y="22" width="4" height="2"/>
  <polygon class="fill" points="21.849 18 12 18 12 20 20.844 20 21.849 18"/>
  <polygon class="fill" points="19.84 22 12 22 12 24 18.835 24 19.84 22"/>
  <path class="orange500" d="M35.86314,33.82781,27.32281,16.81717a1.47638,1.47638,0,0,0-2.6413,0L16.13723,33.82781a1.54,1.54,0,0,0,.75968,2.03463A1.52222,1.52222,0,0,0,17.525,36H34.47543a1.538,1.538,0,0,0,1.38771-2.17219ZM25.375,22h1.25a.57308.57308,0,0,1,.625.5v7a.57308.57308,0,0,1-.625.5h-1.25a.57308.57308,0,0,1-.625-.5v-7A.57308.57308,0,0,1,25.375,22Zm1.68679,12H24.93821A.43935.43935,0,0,1,24.5,33.55951h0V31.42493a.43935.43935,0,0,1,.43821-.44049h2.12358a.43935.43935,0,0,1,.43821.44049h0v2.13566A.43933.43933,0,0,1,27.06179,34Z"/>
</svg>
