<svg id="I_C_O_N_S" data-name="I C O N S" xmlns="http://www.w3.org/2000/svg" width="36" height="36" viewBox="0 0 36 36">
  <defs>
    <style>
      .fill {
        fill: #6e6e6e;
      }

      .green500 {
        fill: #268e6c;
      }
    </style>
  </defs>
  <path class="fill" d="M16.5249,30H4V2H18.73486L26,9.26514v6.79052C26.36182,16.01953,26.72852,16,27.1001,16c.30371,0,.60229.02124.8999.04541V9.26514a1.99984,1.99984,0,0,0-.58594-1.41407L20.14893.58594A1.99984,1.99984,0,0,0,18.73486,0H3A1,1,0,0,0,2,1V31a1,1,0,0,0,1,1H17.31055A10.91685,10.91685,0,0,1,16.5249,30Z"/>
  <rect class="fill" x="6" y="14" width="4" height="2"/>
  <rect class="fill" x="6" y="18" width="4" height="2"/>
  <rect class="fill" x="12" y="14" width="12" height="2"/>
  <rect class="fill" x="6" y="22" width="4" height="2"/>
  <path class="fill" d="M20.7876,18H12v2h6.61475A11.05028,11.05028,0,0,1,20.7876,18Z"/>
  <path class="fill" d="M17.31055,22H12v2h4.5249A10.91685,10.91685,0,0,1,17.31055,22Z"/>
  <path class="green500" d="M27.00005,18.1a8.9,8.9,0,1,0,8.9,8.9A8.89969,8.89969,0,0,0,27.00005,18.1Zm5.85346,6.79651-7.50008,7.50008a.49981.49981,0,0,1-.70167-.00391l-4.12822-4.12822a.5.5,0,0,1,0-.70679l1.0359-1.03615a.49983.49983,0,0,1,.707,0l2.731,2.731,6.106-6.106a.49981.49981,0,0,1,.707,0l1.043,1.043A.49981.49981,0,0,1,32.85351,24.89651Z"/>
</svg>
