<svg id="I_C_O_N_S" data-name="I C O N S" xmlns="http://www.w3.org/2000/svg" width="35.9999" height="35.9999" viewBox="0 0 35.9999 35.9999">
  <defs>
    <style>
      .fill {
        fill: #B9B9B9;
      }

      .red600 {
        fill: #c9252d;
      }
    </style>
  </defs>
  <path class="fill" d="M16.52486,29.99992H4V2H18.73481l7.26512,7.26512v6.79051C26.36175,16.01949,26.72844,16,27.1,16c.30371,0,.6023.02124.8999.04541V9.26511A1.99983,1.99983,0,0,0,27.414,7.85105L20.14887.58594A1.99982,1.99982,0,0,0,18.73481,0H3A1.00005,1.00005,0,0,0,2,1V30.99992a1,1,0,0,0,1,1H17.3105A10.91644,10.91644,0,0,1,16.52486,29.99992Z"/>
  <rect class="fill" x="5.99998" y="13.99996" width="3.99999" height="1.99999"/>
  <rect class="fill" x="5.99998" y="17.99995" width="3.99999" height="1.99999"/>
  <rect class="fill" x="11.99997" y="13.99996" width="11.99997" height="1.99999"/>
  <rect class="fill" x="5.99998" y="21.99994" width="3.99999" height="1.99999"/>
  <path class="fill" d="M20.78754,17.99995H12v2H18.6147A11.05023,11.05023,0,0,1,20.78754,17.99995Z"/>
  <path class="fill" d="M17.3105,21.99994H12v2h4.52489A10.91654,10.91654,0,0,1,17.3105,21.99994Z"/>
  <path class="red600" d="M27.1,18.1a8.9,8.9,0,1,0,8.9,8.9,8.9,8.9,0,0,0-8.9-8.9Zm5.826,12.267a.5.5,0,0,1,0,.707l-1.752,1.752a.5.5,0,0,1-.707,0l-3.367-3.367-3.367,3.367a.5.5,0,0,1-.707,0l-1.752-1.752a.5.5,0,0,1,0-.707l3.367-3.367-3.367-3.367a.5.5,0,0,1,0-.707l1.752-1.752a.5.5,0,0,1,.707,0l3.367,3.367,3.367-3.367a.5.5,0,0,1,.707,0l1.752,1.752a.5.5,0,0,1,0,.707l-3.367,3.367Z"/>
</svg>
