<svg id="I_C_O_N_S" data-name="I C O N S" xmlns="http://www.w3.org/2000/svg" width="35.9999" height="35.9999" viewBox="0 0 35.9999 35.9999">
  <defs>
    <style>
      .fill {
        fill: #6e6e6e;
      }

      .red600 {
        fill: #c9252d;
      }
    </style>
  </defs>
  <path class="fill" d="M10.95583,20.65392a.21.21,0,0,1-.05124.30442.24083.24083,0,0,1-.13679.04159H8.29909a.23657.23657,0,0,1-.18533-.08481L5,16.99868l3.11377-3.91389A.23568.23568,0,0,1,8.29909,13H10.7678a.22492.22492,0,0,1,.2315.21769.20958.20958,0,0,1-.04347.12748L7.80247,17.00038Z"/>
  <path class="fill" d="M13.73615,23.49994l-1.22184-.001A.50657.50657,0,0,1,12,23.00054a.48337.48337,0,0,1,.01889-.13366L15.76731,9.86451A.51344.51344,0,0,1,16.26777,9.5h1.21784a.50657.50657,0,0,1,.51434.49843.48337.48337,0,0,1-.01889.13366L14.2306,23.13542A.51222.51222,0,0,1,13.73615,23.49994Z"/>
  <path class="fill" d="M16.52486,29.99992H4V2H18.73481l7.26512,7.265V16.0555C26.36175,16.01961,26.72844,16,27.1,16c.30371,0,.6023.02124.8999.04541V9.265A2,2,0,0,0,27.414,7.85093L20.14887.58594A1.99978,1.99978,0,0,0,18.73481,0H3A1,1,0,0,0,2,1V30.99992a1,1,0,0,0,1,1H17.3105A10.91982,10.91982,0,0,1,16.52486,29.99992Z"/>
  <path class="fill" d="M22.19745,16.99947l-.24219.28063A10.92457,10.92457,0,0,1,24.46868,16.33l-2.58251-3.24535A.238.238,0,0,0,21.70087,13H19.23213a.24072.24072,0,0,0-.13526.0409.21027.21027,0,0,0-.053.3042Z"/>
  <path class="red600" d="M27.1,18.1a8.9,8.9,0,1,0,8.9,8.9,8.9,8.9,0,0,0-8.9-8.9Zm5.826,12.267a.5.5,0,0,1,0,.707l-1.752,1.752a.5.5,0,0,1-.707,0l-3.367-3.367-3.367,3.367a.5.5,0,0,1-.707,0l-1.752-1.752a.5.5,0,0,1,0-.707l3.367-3.367-3.367-3.367a.5.5,0,0,1,0-.707l1.752-1.752a.5.5,0,0,1,.707,0l3.367,3.367,3.367-3.367a.5.5,0,0,1,.707,0l1.752,1.752a.5.5,0,0,1,0,.707l-3.367,3.367Z"/>
</svg>
