<svg id="I_C_O_N_S" data-name="I C O N S" xmlns="http://www.w3.org/2000/svg" width="36" height="36" viewBox="0 0 36 36">
  <defs>
    <style>
      .fill {
        fill: #6e6e6e;
      }

      .orange500 {
        fill: #da7b11;
      }
    </style>
  </defs>
  <path class="fill" d="M10.95586,20.654a.21.21,0,0,1-.05124.30443A.24083.24083,0,0,1,10.76783,21H8.29912a.23661.23661,0,0,1-.18534-.08481L5,16.99873l3.11378-3.91391A.23564.23564,0,0,1,8.29912,13h2.46871a.22492.22492,0,0,1,.2315.21769.20958.20958,0,0,1-.04347.12747L7.80249,17.00043Z"/>
  <path class="fill" d="M13.73619,23.5l-1.22184-.001A.50657.50657,0,0,1,12,23.0006a.48374.48374,0,0,1,.01889-.13366L15.76735,9.86453A.51342.51342,0,0,1,16.26782,9.5h1.21783A.50657.50657,0,0,1,18,9.99844a.48376.48376,0,0,1-.01889.13367L14.23064,23.13548A.51222.51222,0,0,1,13.73619,23.5Z"/>
  <path class="fill" d="M15.82178,30H4V2H18.73486L26,9.26514V14h.001A3.44025,3.44025,0,0,1,28,14.65747V9.26514a1.99984,1.99984,0,0,0-.58594-1.41407L20.14893.58594A1.99984,1.99984,0,0,0,18.73486,0H3A1,1,0,0,0,2,1V31a1,1,0,0,0,1,1H14.81738Z"/>
  <path class="fill" d="M22.19751,16.99951,22.19727,17h.15405l.543-1.081a3.47694,3.47694,0,0,1,.592-.82325l-1.6001-2.011A.23758.23758,0,0,0,21.70093,13H19.23218a.23982.23982,0,0,0-.13526.041.21023.21023,0,0,0-.053.30419Z"/>
  <path class="orange500" d="M35.86314,33.82781,27.32281,16.81717a1.47638,1.47638,0,0,0-2.6413,0L16.13723,33.82781a1.54,1.54,0,0,0,.75968,2.03463A1.52222,1.52222,0,0,0,17.525,36H34.47543a1.538,1.538,0,0,0,1.38771-2.17219ZM25.375,22h1.25a.57308.57308,0,0,1,.625.5v7a.57308.57308,0,0,1-.625.5h-1.25a.57308.57308,0,0,1-.625-.5v-7A.57308.57308,0,0,1,25.375,22Zm1.68679,12H24.93821A.43935.43935,0,0,1,24.5,33.55951h0V31.42493a.43935.43935,0,0,1,.43821-.44049h2.12358a.43935.43935,0,0,1,.43821.44049h0v2.13566A.43933.43933,0,0,1,27.06179,34Z"/>
</svg>
