<svg id="I_C_O_N_S" data-name="I C O N S" xmlns="http://www.w3.org/2000/svg" width="36" height="36" viewBox="0 0 36 36">
  <defs>
    <style>
      .fill {
        fill: #B9B9B9;
      }

      .green500 {
        fill: #268e6c;
      }
    </style>
  </defs>
  <path class="fill" d="M10.95586,20.654a.21.21,0,0,1-.05124.30443A.24083.24083,0,0,1,10.76783,21H8.29912a.23661.23661,0,0,1-.18534-.08481L5,16.99873l3.11378-3.91391A.23564.23564,0,0,1,8.29912,13h2.46871a.22492.22492,0,0,1,.2315.21769.20958.20958,0,0,1-.04347.12747L7.80249,17.00043Z"/>
  <path class="fill" d="M13.73619,23.5l-1.22184-.001A.50657.50657,0,0,1,12,23.0006a.48374.48374,0,0,1,.01889-.13366L15.76735,9.86453A.51342.51342,0,0,1,16.26782,9.5h1.21783A.50657.50657,0,0,1,18,9.99844a.48376.48376,0,0,1-.01889.13367L14.23064,23.13548A.51222.51222,0,0,1,13.73619,23.5Z"/>
  <path class="fill" d="M16.5249,30H4V2H18.73486L26,9.265v6.79053C26.36182,16.01965,26.72852,16,27.1001,16c.30371,0,.60229.02124.8999.04541V9.265A2,2,0,0,0,27.41406,7.851L20.14893.58594A1.99984,1.99984,0,0,0,18.73486,0H3A1,1,0,0,0,2,1V31a1,1,0,0,0,1,1H17.31055A10.92023,10.92023,0,0,1,16.5249,30Z"/>
  <path class="fill" d="M22.19751,16.99951l-.24219.28064a10.924,10.924,0,0,1,2.51343-.95007l-2.58252-3.24536A.238.238,0,0,0,21.70093,13H19.23218a.24071.24071,0,0,0-.13526.04089.21026.21026,0,0,0-.053.3042Z"/>
  <path class="green500" d="M27.00005,18.1001a8.9,8.9,0,1,0,8.9,8.9A8.89969,8.89969,0,0,0,27.00005,18.1001Zm5.85346,6.79641-7.50008,7.50008a.49981.49981,0,0,1-.70167-.00391l-4.12822-4.12822a.5.5,0,0,1,0-.70679l1.0359-1.03615a.49983.49983,0,0,1,.707,0l2.731,2.731,6.106-6.106a.49981.49981,0,0,1,.707,0l1.043,1.043A.49981.49981,0,0,1,32.85351,24.89651Z"/>
</svg>
