<svg id="I_C_O_N_S" data-name="I C O N S" xmlns="http://www.w3.org/2000/svg" width="36" height="36" viewBox="0 0 36 36">
  <defs>
    <style>
      .red600 {
        fill: #c9252d;
      }
    </style>
  </defs>
  <path class="red600" d="M29.314,6.686a16,16,0,1,0-.00042,22.62742L29.314,29.313A16,16,0,0,0,29.314,6.686Zm-2.687,18.53-1.414,1.411a1.2,1.2,0,0,1-1.69705.00294h0L23.513,26.627,18,21.111l-5.516,5.516a1.2,1.2,0,0,1-1.69705.00294h0L10.784,26.627,9.375,25.212a1.2,1.2,0,0,1-.003-1.69705l0,0L9.375,23.512,14.889,18,9.375,12.484a1.2,1.2,0,0,1-.003-1.69705l0,0,.003-.00294L10.789,9.37a1.2,1.2,0,0,1,1.697-.00294l.003.00294L18,14.888l5.516-5.515a1.2,1.2,0,0,1,1.69705-.00295l0,0L25.216,9.373l1.414,1.414a1.2,1.2,0,0,1,.00294,1.697v0L26.63,12.487,21.111,18l5.516,5.516a1.2,1.2,0,0,1,.00294,1.69705v0Z"/>
</svg>
