<svg id="I_C_O_N_S" data-name="I C O N S" xmlns="http://www.w3.org/2000/svg" width="36" height="36" viewBox="0 0 36 36">
  <defs>
    <style>
      .fill {
        fill: #6e6e6e;
      }

      .orange500 {
        fill: #da7b11;
      }
    </style>
  </defs>
  <path class="fill" d="M16.82617,28H4L8.6897,14H33.2251l-2.02661,6.0802,1.26684,2.5238L35.561,13.31616A.99971.99971,0,0,0,34.61279,12H32V9a1.00036,1.00036,0,0,0-1-1h-.00049l-12.33105.00732L15.36328,4.606A1.9999,1.9999,0,0,0,13.9292,4H4A2.0001,2.0001,0,0,0,2,6V29a1,1,0,0,0,1,1H15.82178Z"/>
  <path class="orange500" d="M35.86314,33.82781,27.32281,16.81717a1.47638,1.47638,0,0,0-2.6413,0L16.13723,33.82781a1.54,1.54,0,0,0,.75968,2.03463A1.52222,1.52222,0,0,0,17.525,36H34.47543a1.538,1.538,0,0,0,1.38771-2.17219ZM25.375,22h1.25a.57308.57308,0,0,1,.625.5v7a.57308.57308,0,0,1-.625.5h-1.25a.57308.57308,0,0,1-.625-.5v-7A.57308.57308,0,0,1,25.375,22Zm1.68679,12H24.93821A.43935.43935,0,0,1,24.5,33.55951h0V31.42493a.43935.43935,0,0,1,.43821-.44049h2.12358a.43935.43935,0,0,1,.43821.44049h0v2.13566A.43933.43933,0,0,1,27.06179,34Z"/>
</svg>
