<svg id="I_C_O_N_S" data-name="I C O N S" xmlns="http://www.w3.org/2000/svg" width="36" height="36" viewBox="0 0 36 36">
  <defs>
    <style>
      .fill {
        fill: #B9B9B9;
      }

      .green500 {
        fill: #268e6c;
      }
    </style>
  </defs>
  <path class="fill" d="M16.05078,28H4L8.68945,14H33.2251l-1.09278,3.27856a10.99737,10.99737,0,0,1,1.72852,1.13819l1.7002-5.10059A.99971.99971,0,0,0,34.61279,12H32V9a1.00036,1.00036,0,0,0-1-1h-.00049l-12.33105.00732L15.36328,4.606A1.9999,1.9999,0,0,0,13.9292,4H4A2.0001,2.0001,0,0,0,2,6V29a1,1,0,0,0,1,1H16.42676A10.91242,10.91242,0,0,1,16.05078,28Z"/>
  <path class="green500" d="M27.00007,18.1a8.9,8.9,0,1,0,8.9,8.9A8.89969,8.89969,0,0,0,27.00007,18.1Zm5.85344,6.79651-7.50008,7.50008a.49981.49981,0,0,1-.70167-.00391l-4.12822-4.12822a.5.5,0,0,1,0-.70679l1.0359-1.03615a.49983.49983,0,0,1,.707,0l2.731,2.731,6.106-6.106a.49981.49981,0,0,1,.707,0l1.043,1.043A.49981.49981,0,0,1,32.85351,24.89651Z"/>
</svg>
