<svg id="I_C_O_N_S" data-name="I C O N S" xmlns="http://www.w3.org/2000/svg" width="35.9999" height="35.9999" viewBox="0 0 35.9999 35.9999">
  <defs>
    <style>
      .fill {
        fill: #B9B9B9;
      }

      .red600 {
        fill: #c9252d;
      }
    </style>
  </defs>
  <path class="fill" d="M16.05074,27.99992H4L8.68943,14H33.225l-1.09277,3.27856a10.997,10.997,0,0,1,1.72851,1.13818l1.70019-5.10057A.9997.9997,0,0,0,34.6127,12H31.99991V9a1.00036,1.00036,0,0,0-1-1h-.00049l-12.331.00732L15.36324,4.60594A1.99989,1.99989,0,0,0,13.92916,4H4A2.00009,2.00009,0,0,0,2,6V28.99992a1.00005,1.00005,0,0,0,1,1H16.42671A10.91325,10.91325,0,0,1,16.05074,27.99992Z"/>
  <path class="red600" d="M27.1,18.1a8.9,8.9,0,1,0,8.9,8.9,8.9,8.9,0,0,0-8.9-8.9Zm5.826,12.267a.5.5,0,0,1,0,.707l-1.752,1.752a.5.5,0,0,1-.707,0l-3.367-3.367-3.367,3.367a.5.5,0,0,1-.707,0l-1.752-1.752a.5.5,0,0,1,0-.707l3.367-3.367-3.367-3.367a.5.5,0,0,1,0-.707l1.752-1.752a.5.5,0,0,1,.707,0l3.367,3.367,3.367-3.367a.5.5,0,0,1,.707,0l1.752,1.752a.5.5,0,0,1,0,.707l-3.367,3.367Z"/>
</svg>
