<svg id="I_C_O_N_S" data-name="I C O N S" xmlns="http://www.w3.org/2000/svg" width="36" height="36" viewBox="0 0 36 36">
  <defs>
    <style>
      .fill {
        fill: #B9B9B9;
      }

      .orange500 {
        fill: #da7b11;
      }
    </style>
  </defs>
  <path class="fill" d="M12,6H0V3A1,1,0,0,1,1,2H7.586a1,1,0,0,1,.707.293Z"/>
  <polygon class="fill" points="20.247 21.19 21.538 18.619 20.247 18.619 20.247 21.19"/>
  <path class="fill" d="M17.83765,25.98645h-.124c-.10327,0-.15454-.058-.15454-.174V18.61865H16.39844c-.09033-.01282-.13526-.0581-.13526-.13537V16.51074a.11962.11962,0,0,1,.13526-.13537h1.16064v-.30945a6.8192,6.8192,0,0,1,.09619-1.20862,3.845,3.845,0,0,1,.30957-.97668A3.35583,3.35583,0,0,1,19.06738,12.585a3.233,3.233,0,0,1,1.895-.50281,4.952,4.952,0,0,1,.561.02906,1.73768,1.73768,0,0,1,.44433.10632.19928.19928,0,0,1,.13575.19336v1.91455q0,.13549-.155.09668a2.07641,2.07641,0,0,0-.2898-.01929h-.29a1.308,1.308,0,0,0-.60937.13538.82751.82751,0,0,0-.38672.45447,2.39611,2.39611,0,0,0-.12573.86059v.5221h1.62475c.07691,0,.12549.01294.14478.03869a.1921.1921,0,0,1,.02905.116v1.0791l.84888-1.69006a3.47585,3.47585,0,0,1,6.21582.00073L32,21.67712V9a1,1,0,0,0-1-1H0V29a1,1,0,0,0,1,1H15.82178ZM15.374,15.93054a4.1799,4.1799,0,0,0-1.14111-.33838,8.8563,8.8563,0,0,0-1.41162-.10644,4.46693,4.46693,0,0,0-2.22412.52209,3.62136,3.62136,0,0,0-1.43091,1.4408A4.46269,4.46269,0,0,0,8.66357,19.624,4.70359,4.70359,0,0,0,8.90527,21.21a3.762,3.762,0,0,0,.667,1.17957,3.30833,3.30833,0,0,0,.967.79284,4.76593,4.76593,0,0,0,1.15039.43518,5.13262,5.13262,0,0,0,1.18969.145,13.05366,13.05366,0,0,0,1.30518-.058,4.73341,4.73341,0,0,0,1.07324-.23218c.05127-.03869.08985-.04834.11621-.02893a.15473.15473,0,0,1,.03858.12573V25.561a.255.255,0,0,1-.15479.27075,5.2012,5.2012,0,0,1-1.16992.26111,12.44748,12.44748,0,0,1-1.51807.087,8.54955,8.54955,0,0,1-2.137-.26111A6.319,6.319,0,0,1,8.58594,25.126,5.63856,5.63856,0,0,1,7.155,23.82056a5.783,5.783,0,0,1-.92822-1.79847,7.57628,7.57628,0,0,1-.32862-2.32055A6.75825,6.75825,0,0,1,6.749,16.26892a5.86643,5.86643,0,0,1,2.41724-2.30127,7.93415,7.93415,0,0,1,3.73218-.8219,12.20114,12.20114,0,0,1,1.49878.07739,4.489,4.489,0,0,1,1.01538.23206.2492.2492,0,0,1,.09668.23206v2.12732C15.50928,15.93054,15.46387,15.96912,15.374,15.93054Z"/>
  <path class="orange500" d="M35.86314,33.82781,27.32281,16.81717a1.47638,1.47638,0,0,0-2.6413,0L16.13723,33.82781a1.54,1.54,0,0,0,.75968,2.03463A1.52222,1.52222,0,0,0,17.525,36H34.47543a1.538,1.538,0,0,0,1.38771-2.17219ZM25.375,22h1.25a.57308.57308,0,0,1,.625.5v7a.57308.57308,0,0,1-.625.5h-1.25a.57308.57308,0,0,1-.625-.5v-7A.57308.57308,0,0,1,25.375,22Zm1.68679,12H24.93821A.43935.43935,0,0,1,24.5,33.55951h0V31.42493a.43935.43935,0,0,1,.43821-.44049h2.12358a.43935.43935,0,0,1,.43821.44049h0v2.13566A.43933.43933,0,0,1,27.06179,34Z"/>
</svg>
