<svg id="I_C_O_N_S" data-name="I C O N S" xmlns="http://www.w3.org/2000/svg" width="36" height="36" viewBox="0 0 36 36">
  <defs>
    <style>
      .fill {
        fill: #B9B9B9;
      }

      .green500 {
        fill: #268e6c;
      }
    </style>
  </defs>
  <path class="fill" d="M12,6H0V3A1,1,0,0,1,1,2H7.586a1,1,0,0,1,.707.293Z"/>
  <path class="green500" d="M27,18.1001a8.9,8.9,0,1,0,8.9,8.9A8.89969,8.89969,0,0,0,27,18.1001Zm5.85349,6.79641-7.50008,7.50008a.49981.49981,0,0,1-.70167-.00391l-4.12822-4.12822a.5.5,0,0,1,0-.70679l1.0359-1.03615a.49983.49983,0,0,1,.707,0l2.731,2.731,6.106-6.106a.49981.49981,0,0,1,.707,0l1.043,1.043A.49981.49981,0,0,1,32.85351,24.89651Z"/>
  <path class="fill" d="M16.2449,28.69067c-.0149-.09253-.03-.18432-.04248-.27758a9.86787,9.86787,0,0,1-.01367-2.73682c.01586-.13062.03881-.2583.05932-.3877q.074-.46692.18652-.91992c.033-.13232.06421-.26465.10206-.39526q.14429-.49842.33447-.97534c.0415-.10547.08008-.21143.12475-.31519q.21242-.49035.47071-.95459c.03344-.061.05786-.12744.09253-.18774V18.61865H16.39846c-.09033-.01269-.13525-.0581-.13525-.13525V16.51074a.11955.11955,0,0,1,.10156-.13525.11127.11127,0,0,1,.03369,0h1.16065v-.30957a6.816,6.816,0,0,1,.09619-1.2085,3.84542,3.84542,0,0,1,.30957-.9768A3.35661,3.35661,0,0,1,19.06741,12.585a3.233,3.233,0,0,1,1.895-.50293,4.89456,4.89456,0,0,1,.561.0293,1.7277,1.7277,0,0,1,.44434.1062.19928.19928,0,0,1,.13574.19336v1.91455q0,.13549-.155.09668a2.05664,2.05664,0,0,0-.28979-.01929h-.29a1.30788,1.30788,0,0,0-.60938.13526.82775.82775,0,0,0-.38672.45459,2.39633,2.39633,0,0,0-.12573.86059v.52222h1.62476c.0769,0,.12548.01269.14477.03857a.19231.19231,0,0,1,.029.116v.70679A10.92941,10.92941,0,0,1,32,17.16211V9a1,1,0,0,0-1-1H0V29a1.00005,1.00005,0,0,0,1,1H16.52493c-.01-.03516-.01368-.07275-.0232-.10815A10.79323,10.79323,0,0,1,16.2449,28.69067Zm-.7356-12.87622c0,.11621-.04541.15479-.13525.11621a4.17124,4.17124,0,0,0-1.14112-.33837,8.81332,8.81332,0,0,0-1.41162-.10645,4.4656,4.4656,0,0,0-2.22412.522,3.62261,3.62261,0,0,0-1.43091,1.44092A4.46222,4.46222,0,0,0,8.6636,19.624,4.70288,4.70288,0,0,0,8.9053,21.21a3.764,3.764,0,0,0,.667,1.17969,3.31,3.31,0,0,0,.967.79272,4.767,4.767,0,0,0,1.15039.43531,5.15333,5.15333,0,0,0,1.1897.145q.65333.00366,1.30517-.05811a4.73349,4.73349,0,0,0,1.07325-.23218c.05127-.03882.08984-.04834.11621-.02905a.15516.15516,0,0,1,.03857.126V25.561a.255.255,0,0,1-.15478.27075,5.194,5.194,0,0,1-1.16993.261,12.42147,12.42147,0,0,1-1.51806.08716,8.5554,8.5554,0,0,1-2.137-.261A6.31966,6.31966,0,0,1,8.586,25.126a5.63873,5.63873,0,0,1-1.43091-1.30542A5.78387,5.78387,0,0,1,6.22683,22.022a7.57448,7.57448,0,0,1-.32861-2.32031A6.75723,6.75723,0,0,1,6.74905,16.269a5.86413,5.86413,0,0,1,2.41723-2.30127,7.93123,7.93123,0,0,1,3.73218-.822,12.15,12.15,0,0,1,1.49878.07739,4.495,4.495,0,0,1,1.01538.23194.2494.2494,0,0,1,.09668.23218Z"/>
</svg>
