<svg id="I_C_O_N_S" data-name="I C O N S" xmlns="http://www.w3.org/2000/svg" width="35.9999" height="35.9999" viewBox="0 0 35.9999 35.9999">
  <defs>
    <style>
      .fill {
        fill: #6e6e6e;
      }

      .red600 {
        fill: #c9252d;
      }
    </style>
  </defs>
  <path class="fill" d="M12,6H0V3A1,1,0,0,1,1,2H7.586a1,1,0,0,1,.707.293Z"/>
  <path class="fill" d="M16.10005,26.99993a10.93617,10.93617,0,0,1,1.459-5.45946V18.6186H16.39839c-.09033-.01282-.13525-.0581-.13525-.13537V16.5107a.11961.11961,0,0,1,.13525-.13538H17.559v-.30945a6.81823,6.81823,0,0,1,.0962-1.20861,3.84456,3.84456,0,0,1,.30957-.97668,3.35562,3.35562,0,0,1,1.10253-1.29565,3.23294,3.23294,0,0,1,1.895-.50281,4.9517,4.9517,0,0,1,.561.029,1.73811,1.73811,0,0,1,.44433.10633.19928.19928,0,0,1,.13575.19336V14.3254q0,.1355-.155.09668a2.07641,2.07641,0,0,0-.2898-.01929h-.29a1.308,1.308,0,0,0-.60937.13538.82751.82751,0,0,0-.38672.45447,2.39655,2.39655,0,0,0-.12573.86059v.52209h1.62475c.07691,0,.12549.01294.14478.0387a.19205.19205,0,0,1,.029.116v.70679a10.92889,10.92889,0,0,1,9.95456-.07458V9a1,1,0,0,0-1-1H0V28.99992a1,1,0,0,0,1,1H16.52486A10.98043,10.98043,0,0,1,16.10005,26.99993Zm-.59081-11.1854c0,.116-.04541.15454-.13526.116a4.17956,4.17956,0,0,0-1.14111-.33838,8.85621,8.85621,0,0,0-1.41162-.10644,4.46692,4.46692,0,0,0-2.22411.52209,3.62146,3.62146,0,0,0-1.43091,1.44079A4.4627,4.4627,0,0,0,8.66355,19.624a4.70332,4.70332,0,0,0,.2417,1.58593,3.76213,3.76213,0,0,0,.667,1.17957,3.30846,3.30846,0,0,0,.967.79284,4.76634,4.76634,0,0,0,1.15039.43518,5.1331,5.1331,0,0,0,1.18969.145,13.05632,13.05632,0,0,0,1.30517-.058,4.73449,4.73449,0,0,0,1.07324-.23218c.05127-.0387.08984-.04834.11621-.02893a.15476.15476,0,0,1,.03858.12573V25.561a.255.255,0,0,1-.15479.27075,5.2012,5.2012,0,0,1-1.16992.26111,12.44731,12.44731,0,0,1-1.51806.087,8.54955,8.54955,0,0,1-2.137-.26111,6.31913,6.31913,0,0,1-1.84692-.79284A5.6385,5.6385,0,0,1,7.155,23.82049,5.78316,5.78316,0,0,1,6.22679,22.022a7.57607,7.57607,0,0,1-.32861-2.32056,6.758,6.758,0,0,1,.85083-3.4326,5.86625,5.86625,0,0,1,2.41722-2.30127,7.93412,7.93412,0,0,1,3.73217-.82189,12.19719,12.19719,0,0,1,1.49878.07739,4.489,4.489,0,0,1,1.01538.232.24923.24923,0,0,1,.09668.23206Z"/>
  <path class="red600" d="M27.1,18.1a8.9,8.9,0,1,0,8.9,8.9,8.9,8.9,0,0,0-8.9-8.9Zm5.826,12.267a.5.5,0,0,1,0,.707l-1.752,1.752a.5.5,0,0,1-.707,0l-3.367-3.367-3.367,3.367a.5.5,0,0,1-.707,0l-1.752-1.752a.5.5,0,0,1,0-.707l3.367-3.367-3.367-3.367a.5.5,0,0,1,0-.707l1.752-1.752a.5.5,0,0,1,.707,0l3.367,3.367,3.367-3.367a.5.5,0,0,1,.707,0l1.752,1.752a.5.5,0,0,1,0,.707l-3.367,3.367Z"/>
</svg>
